<?xml version="1.0" encoding="utf-8"?>
<!-- Generator: Adobe Illustrator 17.1.0, SVG Export Plug-In . SVG Version: 6.00 Build 0)  -->
<!DOCTYPE svg PUBLIC "-//W3C//DTD SVG 1.1//EN" "http://www.w3.org/Graphics/SVG/1.1/DTD/svg11.dtd">
<svg version="1.1" xmlns="http://www.w3.org/2000/svg" xmlns:xlink="http://www.w3.org/1999/xlink" x="0px" y="0px"
	 viewBox="0 0 746.04 344.485" enable-background="new 0 0 746.04 344.485" xml:space="preserve">
<g>
	<path fill="#CC0000" d="M236.269,0.173c0-0.154-64.2,0-64.2,0C77.039,0.173,0,77.213,0,172.243
		c0,95.03,77.039,172.07,172.069,172.07l120.71-0.101c30.326,0,54.91-24.393,54.91-54.718l0.064-104.949l83.433,131.597
		c11.284,17.078,30.653,28.344,52.654,28.344c34.829,0,63.065-28.235,63.065-63.065l-0.019-96.876l83.433,131.597
		c11.284,17.078,30.653,28.344,52.654,28.344c34.829,0,63.065-28.235,63.065-63.065L746.021,0.019H703.09V281.42
		c0,11.109-9.006,20.115-20.116,20.115c-6.943,0-13.065-3.518-16.68-8.868L517.792,58.752c-1.373-1.992-3.67-3.298-6.272-3.298
		c-4.204,0-7.612,3.408-7.612,7.611l0.048,218.355c0,11.109-9.006,20.115-20.116,20.115c-6.943,0-13.065-3.518-16.68-8.868
		L318.658,58.752c-1.373-1.992-3.67-3.298-6.272-3.298c-4.203,0-7.611,3.408-7.611,7.611l-0.034,226.429
		c0,6.605-5.355,11.96-11.961,11.96l-120.71-0.091c-71.31,0-129.12-57.811-129.12-129.121c0-71.31,57.81-129.121,129.12-129.121
		l64.2-0.047V0.173z"/>
	<path fill="#CC0000" d="M243.189,246.21c3.377,0,6.116-2.738,6.116-6.116l0.016-177.029C249.32,28.236,277.556,0,312.385,0
		c22.08,0,41.51,11.347,52.776,28.529l83.143,130.428l0.149-95.892C448.454,28.236,476.69,0,511.52,0
		c22.08,0,41.509,11.347,52.776,28.529l83.143,130.428V0.019h43.225l-0.077,281.401c0,4.204-3.408,7.611-7.612,7.611
		c-2.49,0-4.701-1.196-6.089-3.045L528.199,51.818c-3.615-5.351-9.736-8.869-16.68-8.869c-11.109,0-20.115,9.006-20.115,20.115
		l0.048,218.355c0,4.204-3.408,7.611-7.612,7.611c-2.49,0-4.701-1.196-6.089-3.045L329.066,51.818
		c-3.615-5.351-9.736-8.869-16.68-8.869c-11.109,0-20.115,9.006-20.115,20.115l0.09,220.085c0,3.378-2.738,6.116-6.116,6.116
		l-114.175-0.023c-64.404,0-116.615-52.596-116.615-117.001s52.211-117,116.615-117c0,0,64.2-0.25,64.2,0s0,43.382,0,43.382
		l-64.2-0.048c-40.684,0-73.666,32.982-73.666,73.666s32.982,74.051,73.666,74.051L243.189,246.21z"/>
</g>
</svg>
